#N canvas 857 77 243 400 10;
#N canvas 151 373 1077 463 init 0;
#X obj 211 274 soundfiler;
#X obj 186 7 loadbang;
#X obj 157 5 bng 15 250 50 0 empty empty empty 17 7 0 10 -262144 -1
-1;
#X msg 711 331 print;
#X msg 702 309 window \$1;
#X floatatom 711 286 10 0 0 1 - - -;
#X obj 701 238 + 1;
#X floatatom 701 214 3 1 30 0 - - -;
#X msg 722 352 flush;
#X obj 866 304 metro 40;
#X obj 864 238 loadbang;
#X msg 864 260 1;
#X obj 865 283 tgl 15 0 empty empty empty 17 7 0 10 -262144 -1 -1 1
1;
#X obj 865 328 s globalMetro;
#X obj 702 377 s convolveL;
#X obj 648 401 s convolveR;
#X obj 186 48 t b b b;
#X obj -4 104 del 3000;
#X obj 701 263 * 512;
#X obj 31 132 r \$0-ir.s;
#N canvas 266 301 450 300 create_buffers 0;
#X msg 116 80 buf;
#X obj 116 160 s buffer-canvas;
#X obj 116 110 cyclone/sprintf obj 20 20 table %sL;
#X obj 137 132 cyclone/sprintf obj 20 40 table %sR;
#X obj 116 185 namecanvas buffer-canvas;
#X connect 0 0 2 0;
#X connect 0 0 3 0;
#X connect 2 0 1 0;
#X connect 3 0 1 0;
#X restore 849 -9 pd create_buffers;
#X obj 910 70 table buf1L;
#X obj 911 163 table buf3L;
#X obj 911 184 table buf3R;
#X obj 910 114 table buf2L;
#X obj 910 136 table buf2R;
#X msg 249 148 read -resize ./audio/ir-large-chamber_L.wav buf2L;
#X msg 248 173 read -resize ./audio/ir-large-chamber_R.wav buf2R;
#X msg 248 204 read -resize ./audio/ir-tunnel_L.wav buf3L;
#X msg 248 227 read -resize ./audio/ir-tunnel_R.wav buf3R;
#X msg 248 97 read -resize ./audio/Arundel_Nave_L.wav buf1L;
#X msg 249 120 read -resize ./audio/Arundel_Nave_R.wav buf1R;
#X obj 910 25 table buf0L;
#X floatatom -4 159 5 0 0 0 - - -;
#X obj -4 184 t f f;
#X msg -4 131 0;
#X obj -71 155 del 3000;
#X msg -71 180 \; pd dsp 1;
#X obj 23 209 cyclone/sprintf analyze buf%dL;
#X obj 23 233 s convolveL;
#X obj -4 282 s convolveR;
#X obj 910 91 table buf1R;
#X obj 513 -4 r \$0-selectfile;
#X obj 513 24 openpanel;
#X obj 513 52 splitfilename;
#X obj 588 82 stripfilename -4;
#X obj 910 45 table buf0R;
#X obj 586 159 cyclone/sprintf read -resize ./audio/%s_R.wav buf0R
;
#X obj 573 129 cyclone/sprintf read -resize ./audio/%s_L.wav buf0L
;
#X obj -4 257 cyclone/sprintf analyze buf%dR;
#X connect 1 0 16 0;
#X connect 2 0 16 0;
#X connect 3 0 14 0;
#X connect 3 0 15 0;
#X connect 4 0 14 0;
#X connect 4 0 15 0;
#X connect 6 0 18 0;
#X connect 7 0 6 0;
#X connect 8 0 14 0;
#X connect 8 0 15 0;
#X connect 9 0 13 0;
#X connect 10 0 11 0;
#X connect 11 0 12 0;
#X connect 12 0 9 0;
#X connect 16 0 17 0;
#X connect 16 1 30 0;
#X connect 16 1 31 0;
#X connect 16 1 28 0;
#X connect 16 1 29 0;
#X connect 16 1 26 0;
#X connect 16 1 27 0;
#X connect 17 0 35 0;
#X connect 17 0 36 0;
#X connect 18 0 4 0;
#X connect 18 0 5 0;
#X connect 19 0 33 0;
#X connect 26 0 0 0;
#X connect 27 0 0 0;
#X connect 28 0 0 0;
#X connect 29 0 0 0;
#X connect 30 0 0 0;
#X connect 31 0 0 0;
#X connect 33 0 34 0;
#X connect 34 0 49 0;
#X connect 34 1 38 0;
#X connect 35 0 33 0;
#X connect 36 0 37 0;
#X connect 38 0 39 0;
#X connect 42 0 43 0;
#X connect 43 0 44 0;
#X connect 44 1 45 0;
#X connect 45 0 47 0;
#X connect 45 0 48 0;
#X connect 47 0 0 0;
#X connect 48 0 0 0;
#X connect 49 0 40 0;
#X restore 19 4 pd init;
#N canvas 0 23 487 359 cpu-meter 0;
#X floatatom 103 122 5 0 0 1 % - -;
#X obj 272 158 cputime;
#X obj 272 130 t b b;
#X obj 272 218 * 0.1;
#X obj 272 187 int;
#X obj 272 105 r globalMetro;
#X text 113 103 CPU;
#X connect 1 0 4 0;
#X connect 2 0 1 0;
#X connect 2 1 1 1;
#X connect 3 0 0 0;
#X connect 4 0 3 0;
#X connect 5 0 2 0;
#X coords 0 -1 1 1 45 40 2 100 100;
#X restore 125 6 pd cpu-meter;
#N canvas 243 393 616 307 input 0;
#X msg 213 133 stop;
#X obj 70 40 tgl 15 0 empty empty empty 17 7 0 10 -262144 -1 -1 0 1
;
#X msg 110 31 open ../doc/sound/voice.wav \, start;
#X obj 34 25 adc~;
#X msg 213 110 start;
#X obj 31 250 outlet~;
#X obj 119 253 outlet~;
#X obj 109 120 readsf~ 2;
#X obj 194 231 inmeter input;
#X obj 175 4 inlet;
#X obj 69 6 inlet;
#X obj 44 184 +~;
#X obj 118 180 +~;
#X msg 175 56 open /home/pi/Desktop/convolve_pd/proust_short_mono.wav
\, start;
#X obj 35 122 *~ 1;
#X obj 76 128 *~ 1;
#X connect 0 0 7 0;
#X connect 1 0 14 1;
#X connect 1 0 15 1;
#X connect 2 0 7 0;
#X connect 3 0 14 0;
#X connect 3 1 15 0;
#X connect 4 0 7 0;
#X connect 7 0 12 1;
#X connect 7 0 11 1;
#X connect 9 0 13 0;
#X connect 10 0 1 0;
#X connect 11 0 5 0;
#X connect 11 0 8 0;
#X connect 12 0 6 0;
#X connect 12 0 8 1;
#X connect 13 0 7 0;
#X connect 14 0 11 0;
#X connect 15 0 12 0;
#X restore 15 51 pd input;
#N canvas 0 22 714 578 convolution 0;
#X obj 58 49 inlet~;
#X obj 206 50 inlet~;
#X obj 57 440 outlet~;
#X obj 163 442 outlet~;
#X obj 235 442 inmeter convolution;
#X obj 111 441 outlet~;
#X obj 383 441 outlet~;
#X obj 242 263 r convolveL;
#X obj 413 263 r convolveR;
#X obj 193 261 *~ 0.1;
#X obj 365 258 *~ 0.1;
#X obj 192 293 convolve~ 1024 arundelL;
#X obj 364 294 convolve~ 1024 arundelR;
#X obj 193 348 lop~ 20000;
#X obj 363 347 lop~ 20000;
#X obj 362 393 hip~ 5;
#X obj 193 394 hip~ 5;
#X obj 617 347 line;
#X obj 542 298 line;
#X obj 617 325 pack 0 100;
#X obj 542 276 pack 0 100;
#X obj 541 247 mtof;
#X obj 614 299 mtof;
#X obj 506 86 s pres;
#X obj 506 60 / 1000;
#X floatatom 507 143 10 0 0 0 - - -;
#X obj 495 117 * 44.1;
#X obj 193 231 cyclone/delay~ 44100 0;
#X obj 364 229 cyclone/delay~ 44100 0;
#X obj 493 167 pack 0 100;
#X obj 492 190 line;
#X obj 496 34 r \$0-pre.s;
#X obj 541 223 r \$0-lo.s;
#X obj 614 270 r \$0-hi.s;
#X connect 0 0 2 0;
#X connect 0 0 27 0;
#X connect 1 0 5 0;
#X connect 1 0 28 0;
#X connect 7 0 11 0;
#X connect 8 0 12 0;
#X connect 9 0 11 0;
#X connect 10 0 12 0;
#X connect 11 0 13 0;
#X connect 12 0 14 0;
#X connect 13 0 16 0;
#X connect 14 0 15 0;
#X connect 15 0 6 0;
#X connect 15 0 4 1;
#X connect 16 0 4 0;
#X connect 16 0 3 0;
#X connect 17 0 15 1;
#X connect 17 0 16 1;
#X connect 18 0 13 1;
#X connect 18 0 14 1;
#X connect 19 0 17 0;
#X connect 20 0 18 0;
#X connect 21 0 20 0;
#X connect 22 0 19 0;
#X connect 24 0 23 0;
#X connect 26 0 25 0;
#X connect 26 0 29 0;
#X connect 27 0 9 0;
#X connect 28 0 10 0;
#X connect 29 0 30 0;
#X connect 30 0 28 1;
#X connect 30 0 27 1;
#X connect 31 0 24 0;
#X connect 31 0 26 0;
#X connect 32 0 21 0;
#X connect 33 0 22 0;
#X restore 15 76 pd convolution;
#X obj 20 147 hsl 200 20 0 127 0 1 \$0-drywet.s \$0-drywet.r Dry/Wet
75 11 0 12 -228856 -1 -1 19900 1;
#N canvas 183 441 364 305 dry/wet 0;
#X obj 11 21 inlet~;
#X obj 55 21 inlet~;
#X obj 102 21 inlet~;
#X obj 146 21 inlet~;
#X obj 11 160 *~;
#X obj 53 160 *~;
#X obj 101 162 *~;
#X obj 150 162 *~;
#X obj 34 212 +~;
#X obj 110 206 +~;
#X obj 32 243 outlet~;
#X obj 110 242 outlet~;
#X msg 209 58 \$1 50;
#X obj 207 81 line~ 0;
#X obj 161 132 cos~;
#X obj 66 131 cos~;
#X obj 203 108 +~ 0.75;
#X obj 208 33 / 400;
#X obj 206 7 / 1.27;
#X obj 205 -17 r \$0-drywet.s;
#X connect 0 0 4 0;
#X connect 1 0 5 0;
#X connect 2 0 6 0;
#X connect 3 0 7 0;
#X connect 4 0 8 0;
#X connect 5 0 9 0;
#X connect 6 0 8 1;
#X connect 7 0 9 1;
#X connect 8 0 10 0;
#X connect 9 0 11 0;
#X connect 12 0 13 0;
#X connect 13 0 15 0;
#X connect 13 0 16 0;
#X connect 14 0 7 1;
#X connect 14 0 6 1;
#X connect 15 0 5 1;
#X connect 15 0 4 1;
#X connect 16 0 14 0;
#X connect 17 0 12 0;
#X connect 18 0 17 0;
#X connect 19 0 18 0;
#X restore 15 99 pd dry/wet;
#X obj 20 281 vu 10 80 inputL empty -1 -8 0 10 -66577 -1 0 0;
#X obj 42 281 vu 10 80 inputR empty -1 -8 0 10 -66577 -1 0 0;
#X obj 104 282 vu 10 80 convolutionL empty -1 -8 0 10 -66577 -1 0 0
;
#X obj 126 282 vu 10 80 convolutionR empty -1 -8 0 10 -66577 -1 0 0
;
#X obj 185 282 vu 10 80 outputL empty -1 -8 0 10 -66577 -1 0 0;
#X obj 207 282 vu 10 80 outputR empty -1 -8 0 10 -66577 -1 0 0;
#X obj 207 65 vradio 15 1 1 4 \$0-ir.s \$0-ir.r IR 0 -8 0 10 -262144
-1 -1 0;
#X text 126 77 arundel nave;
#X text 163 109 tunnel;
#X text 17 371 input;
#X text 82 371 convolution;
#X text 179 371 output;
#X obj 59 27 bng 15 250 50 0 empty empty empty 17 7 0 10 -262144 -1
-1;
#X obj 14 26 tgl 15 0 empty empty empty 17 7 0 10 -262144 -1 -1 0 1
;
#N canvas 197 113 597 300 osc 0;
#X obj 119 28 mrpeach/net/udpreceive 20000;
#X obj 119 54 osc/unpackOSC;
#X obj 119 81 osc/pipelist;
#X obj 119 105 osc/routeOSC /verb;
#X floatatom 95 168 5 0 127 0 - - -;
#X floatatom 180 169 5 0 127 0 - - -;
#X floatatom 244 171 5 0 127 0 - - -;
#X floatatom 305 170 5 0 0 0 - - -;
#X obj 119 130 osc/routeOSC /drywet /hi /lo /ir /pre;
#X floatatom 368 194 5 0 0 0 - - -;
#X obj 368 169 / 0.127;
#X obj 244 195 s \$0-lo.r;
#X obj 305 194 s \$0-ir.r;
#X obj 369 220 s \$0-pre.r;
#X obj 180 195 s \$0-hi.r;
#X obj 94 195 s \$0-drywet.r;
#X connect 0 0 1 0;
#X connect 1 0 2 0;
#X connect 1 1 2 1;
#X connect 2 0 3 0;
#X connect 3 0 8 0;
#X connect 4 0 15 0;
#X connect 5 0 14 0;
#X connect 6 0 11 0;
#X connect 7 0 12 0;
#X connect 8 0 4 0;
#X connect 8 1 5 0;
#X connect 8 2 6 0;
#X connect 8 3 7 0;
#X connect 8 4 10 0;
#X connect 9 0 13 0;
#X connect 10 0 9 0;
#X restore 72 3 pd osc;
#N canvas 0 22 577 430 output 0;
#X obj 83 50 inlet~;
#X obj 143 53 inlet~;
#X obj 134 135 inmeter output;
#X obj 52 138 dac~;
#X connect 0 0 3 0;
#X connect 0 0 2 0;
#X connect 1 0 3 1;
#X connect 1 0 2 1;
#X restore 19 123 pd output;
#X obj 20 176 hsl 200 20 0 127 0 1 \$0-hi.s \$0-hi.r Hi_Pass 75 11
0 12 -228856 -1 -1 0 1;
#X obj 20 205 hsl 200 20 0 127 0 1 \$0-lo.s \$0-lo.r Low_Pass 75 11
0 12 -228856 -1 -1 11600 1;
#X obj 21 232 hsl 200 20 0 1000 0 1 \$0-pre.s \$0-pre.r Pre_Delay_(ms)
75 11 0 12 -228856 -1 -1 0 1;
#X text 121 93 large chamber;
#N canvas 391 432 918 390 store 0;
#X obj 58 -38 r \$0-hi.s;
#X obj 58 -8 cyclone/prepend store hi;
#X obj 214 -8 cyclone/prepend store lo;
#X obj 214 -38 r \$0-lo.s;
#X obj 374 -40 r \$0-drywet.s;
#X obj 374 -10 cyclone/prepend store drywet;
#X obj 201 197 pack f s;
#X msg 200 227 \$2 \$1;
#X obj 553 -10 cyclone/prepend store pre;
#X obj 553 -40 r \$0-pre.s;
#X obj 712 -39 r \$0-ir.s;
#X obj 712 -9 cyclone/prepend store ir;
#X obj 315 313 s \$0-drywet.r;
#X obj 244 312 s \$0-lo.r;
#X obj 175 312 s \$0-hi.r;
#X msg 644 141 read convolution-preset.txt;
#X obj 201 262 route hi lo drywet pre ir;
#X obj 403 313 s \$0-pre.r;
#X obj 475 315 s \$0-ir.r;
#X obj 564 79 loadbang;
#X msg 564 136 dump;
#X obj 564 109 del 200;
#X obj 201 168 cyclone/coll convolution-preset.txt;
#C restore;
#X obj 21 48 t b b;
#X msg 21 131 writeagain;
#X connect 0 0 1 0;
#X connect 1 0 22 0;
#X connect 1 0 23 0;
#X connect 2 0 22 0;
#X connect 2 0 23 0;
#X connect 3 0 2 0;
#X connect 4 0 5 0;
#X connect 5 0 22 0;
#X connect 5 0 23 0;
#X connect 6 0 7 0;
#X connect 7 0 16 0;
#X connect 8 0 22 0;
#X connect 8 0 23 0;
#X connect 9 0 8 0;
#X connect 10 0 11 0;
#X connect 11 0 22 0;
#X connect 11 0 23 0;
#X connect 15 0 22 0;
#X connect 16 0 14 0;
#X connect 16 1 13 0;
#X connect 16 2 12 0;
#X connect 16 3 17 0;
#X connect 16 4 18 0;
#X connect 19 0 21 0;
#X connect 19 0 15 0;
#X connect 20 0 22 0;
#X connect 21 0 20 0;
#X connect 22 0 6 0;
#X connect 22 1 6 1;
#X connect 23 0 24 0;
#X connect 23 1 24 0;
#X connect 24 0 22 0;
#X restore 85 124 pd store;
#X floatatom 145 257 5 0 0 0 - pres -;
#X obj 184 61 bng 15 250 50 0 \$0-selectfile empty empty 17 7 0 10
-262144 -1 -1;
#X text 144 59 open>;
#X connect 2 0 3 0;
#X connect 2 1 3 1;
#X connect 3 0 5 0;
#X connect 3 1 5 1;
#X connect 3 2 5 2;
#X connect 3 3 5 3;
#X connect 5 0 21 0;
#X connect 5 1 21 1;
#X connect 18 0 2 1;
#X connect 19 0 2 0;
#X coords 0 0 1 1 85 60 0;
