#N canvas 638 171 243 302 10;
#N canvas 13 193 1077 463 init 0;
#X obj 247 259 soundfiler;
#X obj 247 25 loadbang;
#X obj 217 29 bng 15 250 50 0 empty empty empty 17 7 0 10 -262144 -1
-1;
#X msg 711 331 print;
#X msg 702 309 window \$1;
#X floatatom 711 286 10 0 0 1 - - -;
#X obj 701 238 + 1;
#X floatatom 701 214 3 1 30 0 - - -;
#X msg 722 352 flush;
#X obj 866 304 metro 40;
#X obj 864 238 loadbang;
#X msg 864 260 1;
#X obj 865 283 tgl 15 0 empty empty empty 17 7 0 10 -262144 -1 -1 1
1;
#X obj 865 328 s globalMetro;
#X msg 246 208 read -resize ./audio/Arundel_Nave_L.wav arundelL;
#X msg 286 228 read -resize ./audio/Arundel_Nave_R.wav arundelR;
#X obj 850 46 table arundelL;
#X obj 850 67 table arundelR;
#X obj 702 377 s convolveL;
#X obj 648 401 s convolveR;
#X obj 850 117 table tunnelR;
#X obj 850 96 table tunnelL;
#X msg 308 148 read -resize ./audio/ir-tunnel_L.wav tunnelL;
#X msg 348 168 read -resize ./audio/ir-tunnel_R.wav tunnelR;
#X msg 70 110 \; convolveR analyze tunnelR \; convolveL analyze tunnelL
;
#X msg 357 40 \; drywet-set 0;
#X obj 246 48 t b b b;
#X msg 35 214 \; convolveR analyze arundelR \; convolveL analyze arundelL
;
#X msg 389 109 read -resize ./audio/ir-large-chamber_R.wav chamberR
;
#X msg 349 89 read -resize ./audio/ir-large-chamber_L.wav chamberL
;
#X obj 852 145 table chamberL;
#X obj 852 166 table chamberR;
#X msg 55 162 \; convolveR analyze chamberR \; convolveL analyze chamberL
;
#X obj 36 78 sel 0 1 2;
#X obj 36 52 r ir-choo;
#X obj 701 263 * 512;
#X obj 165 67 del 3000;
#X connect 1 0 26 0;
#X connect 2 0 26 0;
#X connect 3 0 18 0;
#X connect 3 0 19 0;
#X connect 4 0 18 0;
#X connect 4 0 19 0;
#X connect 6 0 35 0;
#X connect 7 0 6 0;
#X connect 8 0 18 0;
#X connect 8 0 19 0;
#X connect 9 0 13 0;
#X connect 10 0 11 0;
#X connect 11 0 12 0;
#X connect 12 0 9 0;
#X connect 14 0 0 0;
#X connect 15 0 0 0;
#X connect 22 0 0 0;
#X connect 23 0 0 0;
#X connect 26 0 36 0;
#X connect 26 1 14 0;
#X connect 26 1 15 0;
#X connect 26 1 22 0;
#X connect 26 1 23 0;
#X connect 26 1 29 0;
#X connect 26 1 28 0;
#X connect 26 2 25 0;
#X connect 28 0 0 0;
#X connect 29 0 0 0;
#X connect 33 0 27 0;
#X connect 33 1 32 0;
#X connect 33 2 24 0;
#X connect 34 0 33 0;
#X connect 35 0 4 0;
#X connect 35 0 5 0;
#X connect 36 0 27 0;
#X restore 19 4 pd init;
#N canvas 0 23 487 359 cpu-meter 0;
#X floatatom 103 122 5 0 0 1 % - -;
#X obj 272 158 cputime;
#X obj 272 130 t b b;
#X obj 272 218 * 0.1;
#X obj 272 187 int;
#X obj 272 105 r globalMetro;
#X connect 1 0 4 0;
#X connect 2 0 1 0;
#X connect 2 1 1 1;
#X connect 3 0 0 0;
#X connect 4 0 3 0;
#X connect 5 0 2 0;
#X coords 0 -1 1 1 85 40 1 100 100;
#X restore 144 12 pd cpu-meter;
#N canvas 243 393 616 307 input 0;
#X msg 213 133 stop;
#X obj 35 122 *~;
#X obj 70 40 tgl 15 0 empty empty empty 17 7 0 10 -262144 -1 -1 1 1
;
#X msg 110 31 open ../doc/sound/voice.wav \, start;
#X obj 34 25 adc~;
#X msg 213 110 start;
#X obj 31 280 outlet~;
#X obj 119 283 outlet~;
#X obj 109 120 readsf~ 2;
#X obj 76 128 *~;
#X obj 194 261 inmeter input;
#X obj 130 5 inlet;
#X obj 69 6 inlet;
#X obj 44 184 +~;
#X obj 118 180 +~;
#X msg 175 56 open /home/pi/Desktop/convolve_pd/proust_short_mono.wav
\, start;
#X connect 0 0 8 0;
#X connect 1 0 13 0;
#X connect 2 0 1 1;
#X connect 2 0 9 1;
#X connect 3 0 8 0;
#X connect 4 0 1 0;
#X connect 4 1 9 0;
#X connect 5 0 8 0;
#X connect 8 0 14 1;
#X connect 8 0 13 1;
#X connect 9 0 14 0;
#X connect 11 0 15 0;
#X connect 12 0 2 0;
#X connect 13 0 6 0;
#X connect 13 0 10 0;
#X connect 14 0 7 0;
#X connect 14 0 10 1;
#X connect 15 0 8 0;
#X restore 15 51 pd input;
#N canvas 0 22 450 300 output 0;
#X obj 135 27 inlet~;
#X obj 288 28 inlet~;
#X obj 220 81 inmeter output;
#X obj 138 84 dac~;
#X connect 0 0 3 0;
#X connect 0 0 2 0;
#X connect 1 0 3 1;
#X connect 1 0 2 1;
#X restore 15 123 pd output;
#N canvas 0 22 778 300 convolution 0;
#X obj 135 27 inlet~;
#X obj 325 27 inlet~;
#X obj 134 250 outlet~;
#X obj 287 251 outlet~;
#X obj 356 221 inmeter convolution;
#X obj 200 248 outlet~;
#X obj 546 238 outlet~;
#X obj 485 45 r convolveL;
#X obj 584 44 r convolveR;
#X obj 335 83 *~ 0.1;
#X obj 527 94 *~ 0.1;
#X obj 363 131 convolve~ 1024 arundelL;
#X obj 539 131 convolve~ 1024 arundelR;
#X connect 0 0 2 0;
#X connect 0 0 9 0;
#X connect 1 0 5 0;
#X connect 1 0 10 0;
#X connect 7 0 11 0;
#X connect 8 0 12 0;
#X connect 9 0 11 0;
#X connect 10 0 12 0;
#X connect 11 0 3 0;
#X connect 11 0 4 0;
#X connect 12 0 6 0;
#X connect 12 0 4 1;
#X restore 15 76 pd convolution;
#X obj 20 147 hsl 200 20 0 100 0 0 drywet drywet-set Dry/Wet 75 11
0 12 -228856 -1 -1 19900 1;
#N canvas 183 291 364 277 dry/wet 0;
#X obj 11 21 inlet~;
#X obj 55 21 inlet~;
#X obj 102 21 inlet~;
#X obj 146 21 inlet~;
#X obj 11 160 *~;
#X obj 53 160 *~;
#X obj 101 162 *~;
#X obj 150 162 *~;
#X obj 34 212 +~;
#X obj 110 206 +~;
#X obj 32 243 outlet~;
#X obj 110 242 outlet~;
#X msg 209 58 \$1 50;
#X obj 207 81 line~ 0;
#X obj 161 132 cos~;
#X obj 66 131 cos~;
#X obj 203 108 +~ 0.75;
#X obj 208 33 / 400;
#X obj 209 8 r drywet;
#X connect 0 0 4 0;
#X connect 1 0 5 0;
#X connect 2 0 6 0;
#X connect 3 0 7 0;
#X connect 4 0 8 0;
#X connect 5 0 9 0;
#X connect 6 0 8 1;
#X connect 7 0 9 1;
#X connect 8 0 10 0;
#X connect 9 0 11 0;
#X connect 12 0 13 0;
#X connect 13 0 15 0;
#X connect 13 0 16 0;
#X connect 14 0 7 1;
#X connect 14 0 6 1;
#X connect 15 0 5 1;
#X connect 15 0 4 1;
#X connect 16 0 14 0;
#X connect 17 0 12 0;
#X connect 18 0 17 0;
#X restore 15 99 pd dry/wet;
#X obj 20 181 vu 10 80 inputL empty -1 -8 0 10 -66577 -1 0 0;
#X obj 42 181 vu 10 80 inputR empty -1 -8 0 10 -66577 -1 0 0;
#X obj 104 182 vu 10 80 convolutionL empty -1 -8 0 10 -66577 -1 0 0
;
#X obj 126 182 vu 10 80 convolutionR empty -1 -8 0 10 -66577 -1 0 0
;
#X obj 185 182 vu 10 80 outputL empty -1 -8 0 10 -66577 -1 0 0;
#X obj 207 182 vu 10 80 outputR empty -1 -8 0 10 -66577 -1 0 0;
#X obj 213 82 vradio 15 1 0 3 ir-choo empty IR 0 -8 0 10 -262144 -1
-1 0;
#X text 133 81 arundel nave;
#X text 127 97 large chamber;
#X text 169 113 tunnel;
#X text 17 271 input;
#X text 82 271 convolution;
#X text 179 271 output;
#X obj 59 27 bng 15 250 50 0 empty empty empty 17 7 0 10 -262144 -1
-1;
#X obj 14 26 tgl 15 0 empty empty empty 17 7 0 10 -262144 -1 -1 1 1
;
#X connect 2 0 4 0;
#X connect 2 1 4 1;
#X connect 4 0 6 0;
#X connect 4 1 6 1;
#X connect 4 2 6 2;
#X connect 4 3 6 3;
#X connect 6 0 3 0;
#X connect 6 1 3 1;
#X connect 20 0 2 1;
#X connect 21 0 2 0;
#X coords 0 0 1 1 85 60 0;
