#N canvas 73 119 226 430 10;
#N canvas 120 320 831 413 init 0;
#X obj 299 336 soundfiler;
#X obj 108 74 loadbang;
#X msg 594 137 print;
#X msg 585 115 window \$1;
#X floatatom 594 92 10 0 0 1 - - -, f 10;
#X obj 584 44 + 1;
#X floatatom 584 20 3 1 30 0 - - -, f 3;
#X msg 605 158 flush;
#X obj 687 138 metro 40;
#X obj 685 72 loadbang;
#X msg 685 94 1;
#X obj 686 117 tgl 15 0 empty empty empty 17 7 0 10 -262144 -1 -1 1
1;
#X obj 686 162 s globalMetro;
#X obj 585 183 s convolveL;
#X obj 531 207 s convolveR;
#X obj 584 69 * 512;
#X msg 19 210 \; pd dsp 1;
#X obj 113 261 s convolveL;
#X obj 86 312 s convolveR;
#X obj 291 15 r \$0-selectfile;
#X obj 291 67 splitfilename;
#X obj 292 93 stripfilename -4;
#X obj 379 234 print IR-NAME;
#X obj 291 43 openpanel /boot/audio;
#X obj 334 144 r \$0-ir-name.s;
#X obj 292 119 s \$0-ir-name.r;
#X obj 35 28 table irL;
#X obj 35 48 table irR;
#X obj 299 274 cyclone/sprintf read -resize /boot/audio/%s_L.wav irL
;
#X obj 312 304 cyclone/sprintf read -resize /boot/audio/%s_R.wav irR
;
#X obj 86 214 t b b;
#X obj 107 178 r \$0-ir-upd;
#X obj 213 271 s \$0-ir-upd;
#X obj 334 202 t b s;
#X obj 140 205 bng 15 250 50 0 empty empty empty 17 7 0 10 -262144
-1 -1;
#X obj 108 28 table dummy;
#X msg 113 237 analyze dummy \, analyze irL;
#X msg 86 291 analyze dummy \, analyze irR;
#X obj 334 174 route symbol;
#X obj 19 133 del 500;
#X obj 19 185 del 500;
#X obj 100 137 s \$0-init-preset;
#X connect 1 0 39 0;
#X connect 1 0 41 0;
#X connect 2 0 13 0;
#X connect 2 0 14 0;
#X connect 3 0 13 0;
#X connect 3 0 14 0;
#X connect 5 0 15 0;
#X connect 6 0 5 0;
#X connect 7 0 13 0;
#X connect 7 0 14 0;
#X connect 8 0 12 0;
#X connect 9 0 10 0;
#X connect 10 0 11 0;
#X connect 11 0 8 0;
#X connect 15 0 3 0;
#X connect 15 0 4 0;
#X connect 19 0 23 0;
#X connect 20 1 21 0;
#X connect 21 0 25 0;
#X connect 23 0 20 0;
#X connect 24 0 38 0;
#X connect 28 0 0 0;
#X connect 29 0 0 0;
#X connect 30 0 37 0;
#X connect 30 1 36 0;
#X connect 31 0 30 0;
#X connect 33 0 32 0;
#X connect 33 1 22 0;
#X connect 33 1 28 0;
#X connect 33 1 29 0;
#X connect 34 0 30 0;
#X connect 36 0 17 0;
#X connect 37 0 18 0;
#X connect 38 0 33 0;
#X connect 39 0 40 0;
#X connect 40 0 16 0;
#X restore 9 12 pd init;
#N canvas 0 23 487 359 cpu-meter 0;
#X floatatom 103 122 5 0 0 1 % - -, f 5;
#X obj 272 158 cputime;
#X obj 272 130 t b b;
#X obj 272 218 * 0.1;
#X obj 272 187 int;
#X obj 272 105 r globalMetro;
#X text 113 103 CPU;
#X connect 1 0 4 0;
#X connect 2 0 1 0;
#X connect 2 1 1 1;
#X connect 3 0 0 0;
#X connect 4 0 3 0;
#X connect 5 0 2 0;
#X coords 0 -1 1 1 45 40 2 100 100;
#X restore 166 11 pd cpu-meter;
#N canvas 661 492 616 330 input 0;
#X msg 213 133 stop;
#X obj 70 40 tgl 15 0 empty empty empty 17 7 0 10 -262144 -1 -1 0 1
;
#X obj 34 25 adc~;
#X msg 213 110 start;
#X obj 31 250 outlet~;
#X obj 119 253 outlet~;
#X obj 109 120 readsf~ 2;
#X obj 194 231 inmeter input;
#X obj 155 6 inlet;
#X obj 69 6 inlet;
#X obj 44 184 +~;
#X obj 118 180 +~;
#X msg 175 56 open /home/pi/Desktop/convolve_pd/proust_short_mono.wav
\, start;
#X obj 35 122 *~ 1;
#X obj 76 128 *~ 1;
#X msg 110 31 open ../doc/sound/voice.wav \, start;
#X connect 0 0 6 0;
#X connect 1 0 13 1;
#X connect 1 0 14 1;
#X connect 2 0 13 0;
#X connect 2 1 14 0;
#X connect 3 0 6 0;
#X connect 6 0 11 1;
#X connect 6 0 10 1;
#X connect 8 0 15 0;
#X connect 9 0 1 0;
#X connect 10 0 4 0;
#X connect 10 0 7 0;
#X connect 11 0 5 0;
#X connect 11 0 7 1;
#X connect 12 0 6 0;
#X connect 13 0 10 0;
#X connect 14 0 11 0;
#X connect 15 0 6 0;
#X restore 9 60 pd input;
#N canvas 0 22 714 578 convolution 0;
#X obj 58 49 inlet~;
#X obj 206 50 inlet~;
#X obj 57 440 outlet~;
#X obj 163 442 outlet~;
#X obj 235 442 inmeter convolution;
#X obj 111 441 outlet~;
#X obj 383 441 outlet~;
#X obj 224 369 r convolveL;
#X obj 395 369 r convolveR;
#X obj 154 124 lop~ 20000;
#X obj 324 123 lop~ 20000;
#X obj 323 169 hip~ 5;
#X obj 154 170 hip~ 5;
#X obj 470 88 line;
#X obj 380 85 line;
#X obj 470 66 pack 0 100;
#X obj 380 63 pack 0 100;
#X obj 379 34 mtof;
#X obj 467 40 mtof;
#X obj 488 192 s pres;
#X obj 488 166 / 1000;
#X floatatom 489 249 10 0 0 0 - - -, f 10;
#X obj 477 223 * 44.1;
#X obj 175 337 cyclone/delay~ 44100 0;
#X obj 346 335 cyclone/delay~ 44100 0;
#X obj 475 273 pack 0 100;
#X obj 474 296 line;
#X obj 478 140 r \$0-pre.s;
#X obj 379 10 r \$0-lo.s;
#X obj 467 11 r \$0-hi.s;
#X obj 174 399 convolve~ 1024 irL;
#X obj 346 400 convolve~ 1024 irR;
#X obj 175 367 *~ 0.2;
#X obj 347 364 *~ 0.2;
#X connect 0 0 2 0;
#X connect 0 0 9 0;
#X connect 1 0 5 0;
#X connect 1 0 10 0;
#X connect 7 0 30 0;
#X connect 8 0 31 0;
#X connect 9 0 12 0;
#X connect 10 0 11 0;
#X connect 11 0 24 0;
#X connect 12 0 23 0;
#X connect 13 0 11 1;
#X connect 13 0 12 1;
#X connect 14 0 9 1;
#X connect 14 0 10 1;
#X connect 15 0 13 0;
#X connect 16 0 14 0;
#X connect 17 0 16 0;
#X connect 18 0 15 0;
#X connect 20 0 19 0;
#X connect 22 0 21 0;
#X connect 22 0 25 0;
#X connect 23 0 32 0;
#X connect 24 0 33 0;
#X connect 25 0 26 0;
#X connect 26 0 24 1;
#X connect 26 0 23 1;
#X connect 27 0 20 0;
#X connect 27 0 22 0;
#X connect 28 0 17 0;
#X connect 29 0 18 0;
#X connect 30 0 4 0;
#X connect 30 0 3 0;
#X connect 31 0 6 0;
#X connect 31 0 4 1;
#X connect 32 0 30 0;
#X connect 33 0 31 0;
#X restore 9 85 pd convolution;
#X obj 12 184 hsl 200 20 0 127 0 0 \$0-dry.s \$0-dry.r Dry 75 11 0
12 -228856 -1 -1 16126 1;
#N canvas 117 464 364 328 dry/wet 0;
#X obj 11 21 inlet~;
#X obj 55 21 inlet~;
#X obj 102 21 inlet~;
#X obj 146 21 inlet~;
#X obj 11 160 *~;
#X obj 53 160 *~;
#X obj 101 162 *~;
#X obj 150 162 *~;
#X obj 34 212 +~;
#X obj 110 206 +~;
#X obj 32 243 outlet~;
#X obj 110 242 outlet~;
#X msg 259 97 \$1 50;
#X obj 259 122 line~ 0;
#X obj 189 47 r \$0-dry.s;
#X msg 189 97 \$1 50;
#X obj 189 122 line~ 0;
#X obj 259 47 r \$0-wet.s;
#N canvas 0 22 450 300 dbtoa 0;
#X obj 36 380 / 20;
#X obj 36 405 t 10 f;
#X obj 36 431 pow;
#X msg 86 380 0;
#X obj 36 355 gate;
#X obj 86 355 sel 0;
#X obj 69 328 tgl 15 0 empty empty empty 17 7 0 10 -262144 -1 -1 1
1;
#X obj 69 304 > -96;
#X obj 57 21 inlet;
#X obj 86 462 outlet;
#X obj 57 46 split 0 10;
#X obj 114 71 split 10 20;
#X obj 177 96 split 20 50;
#X obj 57 126 maxlib/scale 0 10 -96 60 0;
#X obj 74 153 maxlib/scale 10 20 -60 -40 0;
#X obj 88 180 maxlib/scale 20 50 -40 -10 0;
#X obj 103 206 maxlib/scale 64 127 -10 6 0;
#X floatatom 57 245 5 0 0 0 - - -, f 5;
#X connect 0 0 1 0;
#X connect 1 0 2 0;
#X connect 1 1 2 1;
#X connect 2 0 9 0;
#X connect 3 0 9 0;
#X connect 4 0 0 0;
#X connect 5 0 3 0;
#X connect 6 0 4 0;
#X connect 6 0 5 0;
#X connect 7 0 6 0;
#X connect 8 0 10 0;
#X connect 10 0 13 0;
#X connect 10 1 11 0;
#X connect 11 0 14 0;
#X connect 11 1 12 0;
#X connect 12 0 15 0;
#X connect 12 1 16 0;
#X connect 13 0 17 0;
#X connect 14 0 17 0;
#X connect 15 0 17 0;
#X connect 16 0 17 0;
#X connect 17 0 7 0;
#X connect 17 0 4 1;
#X restore 189 71 pd dbtoa;
#N canvas 0 22 450 300 dbtoa 0;
#X obj 36 380 / 20;
#X obj 36 405 t 10 f;
#X obj 36 431 pow;
#X msg 86 380 0;
#X obj 36 355 gate;
#X obj 86 355 sel 0;
#X obj 69 328 tgl 15 0 empty empty empty 17 7 0 10 -262144 -1 -1 1
1;
#X obj 69 304 > -96;
#X obj 57 21 inlet;
#X obj 86 462 outlet;
#X obj 57 46 split 0 10;
#X obj 114 71 split 10 20;
#X obj 177 96 split 20 50;
#X obj 57 126 maxlib/scale 0 10 -96 60 0;
#X obj 74 153 maxlib/scale 10 20 -60 -40 0;
#X obj 88 180 maxlib/scale 20 50 -40 -10 0;
#X obj 103 206 maxlib/scale 64 127 -10 6 0;
#X floatatom 57 245 5 0 0 0 - - -, f 5;
#X connect 0 0 1 0;
#X connect 1 0 2 0;
#X connect 1 1 2 1;
#X connect 2 0 9 0;
#X connect 3 0 9 0;
#X connect 4 0 0 0;
#X connect 5 0 3 0;
#X connect 6 0 4 0;
#X connect 6 0 5 0;
#X connect 7 0 6 0;
#X connect 8 0 10 0;
#X connect 10 0 13 0;
#X connect 10 1 11 0;
#X connect 11 0 14 0;
#X connect 11 1 12 0;
#X connect 12 0 15 0;
#X connect 12 1 16 0;
#X connect 13 0 17 0;
#X connect 14 0 17 0;
#X connect 15 0 17 0;
#X connect 16 0 17 0;
#X connect 17 0 7 0;
#X connect 17 0 4 1;
#X restore 259 71 pd dbtoa;
#X connect 0 0 4 0;
#X connect 1 0 5 0;
#X connect 2 0 6 0;
#X connect 3 0 7 0;
#X connect 4 0 8 0;
#X connect 5 0 9 0;
#X connect 6 0 8 1;
#X connect 7 0 9 1;
#X connect 8 0 10 0;
#X connect 9 0 11 0;
#X connect 12 0 13 0;
#X connect 13 0 7 1;
#X connect 13 0 6 1;
#X connect 14 0 18 0;
#X connect 15 0 16 0;
#X connect 16 0 5 1;
#X connect 16 0 4 1;
#X connect 17 0 19 0;
#X connect 18 0 15 0;
#X connect 19 0 12 0;
#X restore 9 108 pd dry/wet;
#X obj 12 339 vu 10 80 inputL empty -1 -8 0 10 -66577 -1 0 0;
#X obj 34 339 vu 10 80 inputR empty -1 -8 0 10 -66577 -1 0 0;
#X obj 96 340 vu 10 80 convolutionL empty -1 -8 0 10 -66577 -1 0 0
;
#X obj 118 340 vu 10 80 convolutionR empty -1 -8 0 10 -66577 -1 0 0
;
#X obj 177 340 vu 10 80 outputL empty -1 -8 0 10 -66577 -1 0 0;
#X obj 199 340 vu 10 80 outputR empty -1 -8 0 10 -66577 -1 0 0;
#X text 9 429 input;
#X text 74 429 convolution;
#X text 171 429 output;
#X obj 54 39 bng 15 250 50 0 empty empty empty 17 7 0 10 -262144 -1
-1;
#X obj 9 39 tgl 15 0 empty empty empty 17 7 0 10 -262144 -1 -1 0 1
;
#N canvas 201 317 597 300 osc 0;
#X obj 119 28 mrpeach/net/udpreceive 20000;
#X obj 119 54 osc/unpackOSC;
#X obj 119 81 osc/pipelist;
#X obj 119 105 osc/routeOSC /verb;
#X floatatom 95 168 5 0 127 0 - - -, f 5;
#X floatatom 180 169 5 0 127 0 - - -, f 5;
#X floatatom 244 171 5 0 127 0 - - -, f 5;
#X floatatom 310 201 5 0 0 0 - - -, f 5;
#X obj 310 176 / 0.127;
#X obj 244 195 s \$0-lo.r;
#X obj 311 227 s \$0-pre.r;
#X obj 180 195 s \$0-hi.r;
#X obj 94 195 s \$0-drywet.r;
#X obj 379 184 s \$0-ir-name.r;
#X obj 119 131 osc/routeOSC /drywet /hi /lo /pre /ir-name;
#X obj 363 153 cyclone/prepend symbol;
#X connect 0 0 1 0;
#X connect 1 0 2 0;
#X connect 1 1 2 1;
#X connect 2 0 3 0;
#X connect 3 0 14 0;
#X connect 4 0 12 0;
#X connect 5 0 11 0;
#X connect 6 0 9 0;
#X connect 7 0 10 0;
#X connect 8 0 7 0;
#X connect 14 0 4 0;
#X connect 14 1 5 0;
#X connect 14 2 6 0;
#X connect 14 3 8 0;
#X connect 14 4 15 0;
#X connect 15 0 13 0;
#X restore 59 12 pd osc;
#N canvas 431 22 577 453 output 0;
#X obj 83 50 inlet~;
#X obj 143 53 inlet~;
#X obj 134 135 inmeter output;
#X obj 52 138 dac~;
#X connect 0 0 3 0;
#X connect 0 0 2 0;
#X connect 1 0 3 1;
#X connect 1 0 2 1;
#X restore 9 132 pd output;
#X obj 12 251 hsl 200 20 0 127 0 0 \$0-hi.s \$0-hi.r Hi_Pass 75 11
0 12 -228856 -1 -1 0 1;
#X obj 12 280 hsl 200 20 0 127 0 0 \$0-lo.s \$0-lo.r Low_Pass 75 11
0 12 -228856 -1 -1 19900 1;
#X obj 12 307 hsl 160 20 0 200 0 0 \$0-pre.s \$0-pre.r Pre_Delay_(s)
75 11 0 12 -228856 -1 -1 2100 1;
#N canvas 415 304 918 492 store 0;
#X obj 68 42 r \$0-hi.s;
#X obj 68 72 cyclone/prepend store hi;
#X obj 224 72 cyclone/prepend store lo;
#X obj 224 42 r \$0-lo.s;
#X obj 344 245 pack f s;
#X msg 210 307 \$2 \$1;
#X obj 563 70 cyclone/prepend store pre;
#X obj 563 40 r \$0-pre.s;
#X obj 196 422 s \$0-lo.r;
#X obj 127 422 s \$0-hi.r;
#X msg 654 221 read convolution-preset.txt;
#X obj 413 423 s \$0-pre.r;
#X obj 574 189 del 200;
#X obj 224 190 cyclone/coll convolution-preset.txt;
#C restore;
#X obj 31 128 t b b;
#X msg 31 211 writeagain;
#X msg 58 157 stop;
#X obj 30 186 del 100;
#X obj 722 41 r \$0-ir-name.s;
#X obj 722 71 cyclone/prepend store ir-name;
#X obj 486 425 s \$0-ir-name.r;
#X obj 174 215 route symbol float;
#X obj 179 277 pack s s;
#X floatatom 222 342 5 0 0 0 - - -, f 5;
#X symbolatom 484 369 10 0 0 0 - - -, f 10;
#X obj 512 329 cyclone/prepend set;
#X floatatom 307 342 5 0 0 0 - - -, f 5;
#X floatatom 353 343 5 0 0 0 - - -, f 5;
#X floatatom 265 343 5 0 0 0 - - -, f 5;
#X obj 477 339 bng 15 250 50 0 empty empty empty 17 7 0 10 -262144
-1 -1;
#X obj 110 322 print recall;
#X obj 174 247 cyclone/prepend symbol;
#X msg 531 218 dump;
#X obj 481 290 t b a;
#X obj 626 129 r \$0-init-preset;
#X msg 684 280 symbol default;
#X obj 384 70 cyclone/prepend store dry;
#X obj 384 40 r \$0-dry.s;
#X obj 412 118 r \$0-wet.s;
#X obj 412 148 cyclone/prepend store wet;
#X obj 267 423 s \$0-dry.r;
#X obj 210 372 route hi lo dry wet pre ir-name;
#X obj 339 423 s \$0-wet.r;
#X connect 0 0 1 0;
#X connect 1 0 13 0;
#X connect 1 0 14 0;
#X connect 2 0 13 0;
#X connect 2 0 14 0;
#X connect 3 0 2 0;
#X connect 4 0 5 0;
#X connect 5 0 30 0;
#X connect 5 0 41 0;
#X connect 6 0 13 0;
#X connect 6 0 14 0;
#X connect 7 0 6 0;
#X connect 10 0 13 0;
#X connect 12 0 32 0;
#X connect 12 0 35 0;
#X connect 13 0 21 0;
#X connect 13 1 22 1;
#X connect 13 1 4 1;
#X connect 14 0 17 0;
#X connect 14 1 16 0;
#X connect 15 0 13 0;
#X connect 16 0 17 0;
#X connect 17 0 15 0;
#X connect 18 0 19 0;
#X connect 19 0 13 0;
#X connect 19 0 14 0;
#X connect 21 0 31 0;
#X connect 21 1 4 0;
#X connect 22 0 5 0;
#X connect 24 0 20 0;
#X connect 25 0 24 0;
#X connect 29 0 24 0;
#X connect 31 0 22 0;
#X connect 32 0 13 0;
#X connect 33 0 29 0;
#X connect 33 1 25 0;
#X connect 34 0 12 0;
#X connect 34 0 10 0;
#X connect 35 0 20 0;
#X connect 36 0 13 0;
#X connect 36 0 14 0;
#X connect 37 0 36 0;
#X connect 38 0 39 0;
#X connect 39 0 14 0;
#X connect 39 0 13 0;
#X connect 41 0 9 0;
#X connect 41 0 23 0;
#X connect 41 1 8 0;
#X connect 41 1 28 0;
#X connect 41 2 26 0;
#X connect 41 2 40 0;
#X connect 41 3 27 0;
#X connect 41 3 42 0;
#X connect 41 4 11 0;
#X restore 103 12 pd store;
#X floatatom 182 308 5 0 0 0 - pres -, f 5;
#X obj 9 160 bng 15 250 50 0 \$0-selectfile empty empty 17 7 0 10 -262144
-1 -1;
#X symbolatom 32 158 30 0 0 0 - #0-ir-name.r #0-ir-name.s, f 30;
#N canvas 492 407 450 323 midi 0;
#X obj 72 29 ctlin;
#X obj 72 65 pack;
#X msg 71 96 \$2 \$1;
#X obj 287 150 prepend set;
#X msg 288 178 1 78;
#X floatatom 273 274 5 0 0 0 - - -, f 5;
#X obj 277 223 / 0.127;
#X obj 211 242 s \$0-lo.r;
#X obj 274 300 s \$0-pre.r;
#X obj 147 242 s \$0-hi.r;
#X obj 277 249 / 5;
#X obj 62 140 route 0 1 2 3 4, f 26;
#X obj 25 241 s \$0-dry.r;
#X obj 64 209 s \$0-wet.r;
#X connect 0 0 1 0;
#X connect 0 1 1 1;
#X connect 1 0 2 0;
#X connect 2 0 3 0;
#X connect 2 0 11 0;
#X connect 3 0 4 0;
#X connect 5 0 8 0;
#X connect 6 0 10 0;
#X connect 10 0 5 0;
#X connect 11 0 12 0;
#X connect 11 1 13 0;
#X connect 11 2 9 0;
#X connect 11 3 7 0;
#X connect 11 4 6 0;
#X restore 107 57 pd midi;
#N canvas 236 490 364 328 dry/wet 0;
#X obj 11 21 inlet~;
#X obj 55 21 inlet~;
#X obj 102 21 inlet~;
#X obj 146 21 inlet~;
#X obj 11 160 *~;
#X obj 53 160 *~;
#X obj 101 162 *~;
#X obj 150 162 *~;
#X obj 34 212 +~;
#X obj 110 206 +~;
#X obj 32 243 outlet~;
#X obj 110 242 outlet~;
#X msg 209 58 \$1 50;
#X obj 207 81 line~ 0;
#X obj 161 132 cos~;
#X obj 66 131 cos~;
#X obj 203 108 +~ 0.75;
#X obj 208 33 / 400;
#X obj 206 7 / 1.27;
#X obj 205 -17 r \$0-drywet.s;
#X connect 0 0 4 0;
#X connect 1 0 5 0;
#X connect 2 0 6 0;
#X connect 3 0 7 0;
#X connect 4 0 8 0;
#X connect 5 0 9 0;
#X connect 6 0 8 1;
#X connect 7 0 9 1;
#X connect 8 0 10 0;
#X connect 9 0 11 0;
#X connect 12 0 13 0;
#X connect 13 0 15 0;
#X connect 13 0 16 0;
#X connect 14 0 7 1;
#X connect 14 0 6 1;
#X connect 15 0 5 1;
#X connect 15 0 4 1;
#X connect 16 0 14 0;
#X connect 17 0 12 0;
#X connect 18 0 17 0;
#X connect 19 0 18 0;
#X restore 114 113 pd dry/wet;
#X obj 12 218 hsl 200 20 0 127 0 0 \$0-wet.s \$0-wet.r Wet 75 11 0
12 -228856 -1 -1 16122 1;
#X connect 2 0 3 0;
#X connect 2 1 3 1;
#X connect 3 0 5 0;
#X connect 3 1 5 1;
#X connect 3 2 5 2;
#X connect 3 3 5 3;
#X connect 5 0 18 0;
#X connect 5 1 18 1;
#X connect 15 0 2 1;
#X connect 16 0 2 0;
#X coords 0 0 1 1 85 60 0;
