#N canvas 533 214 230 421 10;
#N canvas 120 320 831 413 init 0;
#X obj 299 336 soundfiler;
#X obj 108 74 loadbang;
#X msg 594 137 print;
#X msg 585 115 window \$1;
#X floatatom 594 92 10 0 0 1 - - -;
#X obj 584 44 + 1;
#X floatatom 584 20 3 1 30 0 - - -;
#X msg 605 158 flush;
#X obj 687 138 metro 40;
#X obj 685 72 loadbang;
#X msg 685 94 1;
#X obj 686 117 tgl 15 0 empty empty empty 17 7 0 10 -262144 -1 -1 1
1;
#X obj 686 162 s globalMetro;
#X obj 585 183 s convolveL;
#X obj 531 207 s convolveR;
#X obj 584 69 * 512;
#X msg 19 210 \; pd dsp 1;
#X obj 113 261 s convolveL;
#X obj 86 312 s convolveR;
#X obj 291 15 r \$0-selectfile;
#X obj 291 67 splitfilename;
#X obj 292 93 stripfilename -4;
#X obj 379 234 print IR-NAME;
#X obj 291 43 openpanel /boot/audio;
#X obj 334 144 r \$0-ir-name.s;
#X obj 292 119 s \$0-ir-name.r;
#X obj 35 28 table irL;
#X obj 35 48 table irR;
#X obj 299 274 cyclone/sprintf read -resize /boot/audio/%s_L.wav irL
;
#X obj 312 304 cyclone/sprintf read -resize /boot/audio/%s_R.wav irR
;
#X obj 86 214 t b b;
#X obj 107 178 r \$0-ir-upd;
#X obj 213 271 s \$0-ir-upd;
#X obj 334 202 t b s;
#X obj 140 205 bng 15 250 50 0 empty empty empty 17 7 0 10 -262144
-1 -1;
#X obj 108 28 table dummy;
#X msg 113 237 analyze dummy \, analyze irL;
#X msg 86 291 analyze dummy \, analyze irR;
#X obj 334 174 route symbol;
#X obj 19 133 del 500;
#X obj 19 185 del 500;
#X obj 100 137 s \$0-init-preset;
#X connect 1 0 39 0;
#X connect 1 0 41 0;
#X connect 2 0 13 0;
#X connect 2 0 14 0;
#X connect 3 0 13 0;
#X connect 3 0 14 0;
#X connect 5 0 15 0;
#X connect 6 0 5 0;
#X connect 7 0 13 0;
#X connect 7 0 14 0;
#X connect 8 0 12 0;
#X connect 9 0 10 0;
#X connect 10 0 11 0;
#X connect 11 0 8 0;
#X connect 15 0 3 0;
#X connect 15 0 4 0;
#X connect 19 0 23 0;
#X connect 20 1 21 0;
#X connect 21 0 25 0;
#X connect 23 0 20 0;
#X connect 24 0 38 0;
#X connect 28 0 0 0;
#X connect 29 0 0 0;
#X connect 30 0 37 0;
#X connect 30 1 36 0;
#X connect 31 0 30 0;
#X connect 33 0 32 0;
#X connect 33 1 22 0;
#X connect 33 1 28 0;
#X connect 33 1 29 0;
#X connect 34 0 30 0;
#X connect 36 0 17 0;
#X connect 37 0 18 0;
#X connect 38 0 33 0;
#X connect 39 0 40 0;
#X connect 40 0 16 0;
#X restore 9 12 pd init;
#N canvas 0 23 487 359 cpu-meter 0;
#X floatatom 103 122 5 0 0 1 % - -;
#X obj 272 158 cputime;
#X obj 272 130 t b b;
#X obj 272 218 * 0.1;
#X obj 272 187 int;
#X obj 272 105 r globalMetro;
#X text 113 103 CPU;
#X connect 1 0 4 0;
#X connect 2 0 1 0;
#X connect 2 1 1 1;
#X connect 3 0 0 0;
#X connect 4 0 3 0;
#X connect 5 0 2 0;
#X coords 0 -1 1 1 45 40 2 100 100;
#X restore 166 11 pd cpu-meter;
#N canvas 243 393 616 307 input 0;
#X msg 213 133 stop;
#X obj 70 40 tgl 15 0 empty empty empty 17 7 0 10 -262144 -1 -1 0 1
;
#X msg 110 31 open ../doc/sound/voice.wav \, start;
#X obj 34 25 adc~;
#X msg 213 110 start;
#X obj 31 250 outlet~;
#X obj 119 253 outlet~;
#X obj 109 120 readsf~ 2;
#X obj 194 231 inmeter input;
#X obj 175 4 inlet;
#X obj 69 6 inlet;
#X obj 44 184 +~;
#X obj 118 180 +~;
#X msg 175 56 open /home/pi/Desktop/convolve_pd/proust_short_mono.wav
\, start;
#X obj 35 122 *~ 1;
#X obj 76 128 *~ 1;
#X connect 0 0 7 0;
#X connect 1 0 14 1;
#X connect 1 0 15 1;
#X connect 2 0 7 0;
#X connect 3 0 14 0;
#X connect 3 1 15 0;
#X connect 4 0 7 0;
#X connect 7 0 12 1;
#X connect 7 0 11 1;
#X connect 9 0 13 0;
#X connect 10 0 1 0;
#X connect 11 0 5 0;
#X connect 11 0 8 0;
#X connect 12 0 6 0;
#X connect 12 0 8 1;
#X connect 13 0 7 0;
#X connect 14 0 11 0;
#X connect 15 0 12 0;
#X restore 9 60 pd input;
#N canvas 0 22 714 578 convolution 0;
#X obj 58 49 inlet~;
#X obj 206 50 inlet~;
#X obj 57 440 outlet~;
#X obj 163 442 outlet~;
#X obj 235 442 inmeter convolution;
#X obj 111 441 outlet~;
#X obj 383 441 outlet~;
#X obj 242 263 r convolveL;
#X obj 413 263 r convolveR;
#X obj 193 261 *~ 0.1;
#X obj 365 258 *~ 0.1;
#X obj 193 348 lop~ 20000;
#X obj 363 347 lop~ 20000;
#X obj 362 393 hip~ 5;
#X obj 193 394 hip~ 5;
#X obj 617 347 line;
#X obj 542 298 line;
#X obj 617 325 pack 0 100;
#X obj 542 276 pack 0 100;
#X obj 541 247 mtof;
#X obj 614 299 mtof;
#X obj 506 86 s pres;
#X obj 506 60 / 1000;
#X floatatom 507 143 10 0 0 0 - - -;
#X obj 495 117 * 44.1;
#X obj 193 231 cyclone/delay~ 44100 0;
#X obj 364 229 cyclone/delay~ 44100 0;
#X obj 493 167 pack 0 100;
#X obj 492 190 line;
#X obj 496 34 r \$0-pre.s;
#X obj 541 223 r \$0-lo.s;
#X obj 614 270 r \$0-hi.s;
#X obj 192 293 convolve~ 1024 irL;
#X obj 364 294 convolve~ 1024 irR;
#X connect 0 0 2 0;
#X connect 0 0 25 0;
#X connect 1 0 5 0;
#X connect 1 0 26 0;
#X connect 7 0 32 0;
#X connect 8 0 33 0;
#X connect 9 0 32 0;
#X connect 10 0 33 0;
#X connect 11 0 14 0;
#X connect 12 0 13 0;
#X connect 13 0 6 0;
#X connect 13 0 4 1;
#X connect 14 0 4 0;
#X connect 14 0 3 0;
#X connect 15 0 13 1;
#X connect 15 0 14 1;
#X connect 16 0 11 1;
#X connect 16 0 12 1;
#X connect 17 0 15 0;
#X connect 18 0 16 0;
#X connect 19 0 18 0;
#X connect 20 0 17 0;
#X connect 22 0 21 0;
#X connect 24 0 23 0;
#X connect 24 0 27 0;
#X connect 25 0 9 0;
#X connect 26 0 10 0;
#X connect 27 0 28 0;
#X connect 28 0 26 1;
#X connect 28 0 25 1;
#X connect 29 0 22 0;
#X connect 29 0 24 0;
#X connect 30 0 19 0;
#X connect 31 0 20 0;
#X connect 32 0 11 0;
#X connect 33 0 12 0;
#X restore 9 85 pd convolution;
#X obj 12 184 hsl 200 20 0 127 0 1 \$0-drywet.s \$0-drywet.r Dry/Wet
75 11 0 12 -228856 -1 -1 18333 1;
#N canvas 183 441 364 305 dry/wet 0;
#X obj 11 21 inlet~;
#X obj 55 21 inlet~;
#X obj 102 21 inlet~;
#X obj 146 21 inlet~;
#X obj 11 160 *~;
#X obj 53 160 *~;
#X obj 101 162 *~;
#X obj 150 162 *~;
#X obj 34 212 +~;
#X obj 110 206 +~;
#X obj 32 243 outlet~;
#X obj 110 242 outlet~;
#X msg 209 58 \$1 50;
#X obj 207 81 line~ 0;
#X obj 161 132 cos~;
#X obj 66 131 cos~;
#X obj 203 108 +~ 0.75;
#X obj 208 33 / 400;
#X obj 206 7 / 1.27;
#X obj 205 -17 r \$0-drywet.s;
#X connect 0 0 4 0;
#X connect 1 0 5 0;
#X connect 2 0 6 0;
#X connect 3 0 7 0;
#X connect 4 0 8 0;
#X connect 5 0 9 0;
#X connect 6 0 8 1;
#X connect 7 0 9 1;
#X connect 8 0 10 0;
#X connect 9 0 11 0;
#X connect 12 0 13 0;
#X connect 13 0 15 0;
#X connect 13 0 16 0;
#X connect 14 0 7 1;
#X connect 14 0 6 1;
#X connect 15 0 5 1;
#X connect 15 0 4 1;
#X connect 16 0 14 0;
#X connect 17 0 12 0;
#X connect 18 0 17 0;
#X connect 19 0 18 0;
#X restore 9 108 pd dry/wet;
#X obj 12 301 vu 10 80 inputL empty -1 -8 0 10 -66577 -1 0 0;
#X obj 34 301 vu 10 80 inputR empty -1 -8 0 10 -66577 -1 0 0;
#X obj 96 302 vu 10 80 convolutionL empty -1 -8 0 10 -66577 -1 0 0
;
#X obj 118 302 vu 10 80 convolutionR empty -1 -8 0 10 -66577 -1 0 0
;
#X obj 177 302 vu 10 80 outputL empty -1 -8 0 10 -66577 -1 0 0;
#X obj 199 302 vu 10 80 outputR empty -1 -8 0 10 -66577 -1 0 0;
#X text 9 391 input;
#X text 74 391 convolution;
#X text 171 391 output;
#X obj 54 39 bng 15 250 50 0 empty empty empty 17 7 0 10 -262144 -1
-1;
#X obj 9 39 tgl 15 0 empty empty empty 17 7 0 10 -262144 -1 -1 0 1
;
#N canvas 201 317 597 300 osc 0;
#X obj 119 28 mrpeach/net/udpreceive 20000;
#X obj 119 54 osc/unpackOSC;
#X obj 119 81 osc/pipelist;
#X obj 119 105 osc/routeOSC /verb;
#X floatatom 95 168 5 0 127 0 - - -;
#X floatatom 180 169 5 0 127 0 - - -;
#X floatatom 244 171 5 0 127 0 - - -;
#X floatatom 310 201 5 0 0 0 - - -;
#X obj 310 176 / 0.127;
#X obj 244 195 s \$0-lo.r;
#X obj 311 227 s \$0-pre.r;
#X obj 180 195 s \$0-hi.r;
#X obj 94 195 s \$0-drywet.r;
#X obj 379 184 s \$0-ir-name.r;
#X obj 119 131 osc/routeOSC /drywet /hi /lo /pre /ir-name;
#X obj 363 153 cyclone/prepend symbol;
#X connect 0 0 1 0;
#X connect 1 0 2 0;
#X connect 1 1 2 1;
#X connect 2 0 3 0;
#X connect 3 0 14 0;
#X connect 4 0 12 0;
#X connect 5 0 11 0;
#X connect 6 0 9 0;
#X connect 7 0 10 0;
#X connect 8 0 7 0;
#X connect 14 0 4 0;
#X connect 14 1 5 0;
#X connect 14 2 6 0;
#X connect 14 3 8 0;
#X connect 14 4 15 0;
#X connect 15 0 13 0;
#X restore 59 12 pd osc;
#N canvas 0 22 577 430 output 0;
#X obj 83 50 inlet~;
#X obj 143 53 inlet~;
#X obj 134 135 inmeter output;
#X obj 52 138 dac~;
#X connect 0 0 3 0;
#X connect 0 0 2 0;
#X connect 1 0 3 1;
#X connect 1 0 2 1;
#X restore 9 132 pd output;
#X obj 12 213 hsl 200 20 0 127 0 1 \$0-hi.s \$0-hi.r Hi_Pass 75 11
0 12 -228856 -1 -1 13162 1;
#X obj 12 242 hsl 200 20 0 127 0 1 \$0-lo.s \$0-lo.r Low_Pass 75 11
0 12 -228856 -1 -1 15300 1;
#X obj 12 269 hsl 160 20 0 1000 0 1 \$0-pre.s \$0-pre.r Pre_Delay_(s)
75 11 0 12 -228856 -1 -1 0 1;
#N canvas 85 251 918 446 store 0;
#X obj 58 -38 r \$0-hi.s;
#X obj 58 -8 cyclone/prepend store hi;
#X obj 214 -8 cyclone/prepend store lo;
#X obj 214 -38 r \$0-lo.s;
#X obj 374 -40 r \$0-drywet.s;
#X obj 374 -10 cyclone/prepend store drywet;
#X obj 334 165 pack f s;
#X msg 200 227 \$2 \$1;
#X obj 553 -10 cyclone/prepend store pre;
#X obj 553 -40 r \$0-pre.s;
#X obj 315 343 s \$0-drywet.r;
#X obj 244 342 s \$0-lo.r;
#X obj 175 342 s \$0-hi.r;
#X msg 644 141 read convolution-preset.txt;
#X obj 403 343 s \$0-pre.r;
#X obj 564 109 del 200;
#X obj 214 110 cyclone/coll convolution-preset.txt;
#C restore;
#X obj 21 48 t b b;
#X msg 21 131 writeagain;
#X msg 48 77 stop;
#X obj 20 106 del 100;
#X obj 712 -39 r \$0-ir-name.s;
#X obj 712 -9 cyclone/prepend store ir-name;
#X obj 200 292 route hi lo drywet pre ir-name;
#X obj 476 345 s \$0-ir-name.r;
#X obj 164 135 route symbol float;
#X obj 169 197 pack s s;
#X floatatom 212 262 5 0 0 0 - - -;
#X symbolatom 474 289 10 0 0 0 - - -;
#X obj 502 249 cyclone/prepend set;
#X floatatom 297 262 5 0 0 0 - - -;
#X floatatom 343 263 5 0 0 0 - - -;
#X floatatom 255 263 5 0 0 0 - - -;
#X obj 467 259 bng 15 250 50 0 empty empty empty 17 7 0 10 -262144
-1 -1;
#X obj 100 242 print recall;
#X obj 164 167 cyclone/prepend symbol;
#X msg 564 136 dump;
#X obj 471 210 t b a;
#X obj 616 49 r \$0-init-preset;
#X connect 0 0 1 0;
#X connect 1 0 16 0;
#X connect 1 0 17 0;
#X connect 2 0 16 0;
#X connect 2 0 17 0;
#X connect 3 0 2 0;
#X connect 4 0 5 0;
#X connect 5 0 16 0;
#X connect 5 0 17 0;
#X connect 6 0 7 0;
#X connect 7 0 23 0;
#X connect 7 0 34 0;
#X connect 8 0 16 0;
#X connect 8 0 17 0;
#X connect 9 0 8 0;
#X connect 13 0 16 0;
#X connect 15 0 36 0;
#X connect 16 0 25 0;
#X connect 16 1 26 1;
#X connect 16 1 6 1;
#X connect 17 0 20 0;
#X connect 17 1 19 0;
#X connect 18 0 16 0;
#X connect 19 0 20 0;
#X connect 20 0 18 0;
#X connect 21 0 22 0;
#X connect 22 0 16 0;
#X connect 22 0 17 0;
#X connect 23 0 12 0;
#X connect 23 0 27 0;
#X connect 23 1 11 0;
#X connect 23 1 32 0;
#X connect 23 2 10 0;
#X connect 23 2 30 0;
#X connect 23 3 14 0;
#X connect 23 3 31 0;
#X connect 23 4 37 0;
#X connect 25 0 35 0;
#X connect 25 1 6 0;
#X connect 26 0 7 0;
#X connect 28 0 24 0;
#X connect 29 0 28 0;
#X connect 33 0 28 0;
#X connect 35 0 26 0;
#X connect 36 0 16 0;
#X connect 37 0 33 0;
#X connect 37 1 29 0;
#X connect 38 0 15 0;
#X connect 38 0 13 0;
#X restore 103 12 pd store;
#X floatatom 182 270 5 0 0 0 - pres -;
#X obj 9 160 bng 15 250 50 0 \$0-selectfile empty empty 17 7 0 10 -262144
-1 -1;
#X symbolatom 32 158 30 0 0 0 - #0-ir-name.r #0-ir-name.s;
#X connect 2 0 3 0;
#X connect 2 1 3 1;
#X connect 3 0 5 0;
#X connect 3 1 5 1;
#X connect 3 2 5 2;
#X connect 3 3 5 3;
#X connect 5 0 18 0;
#X connect 5 1 18 1;
#X connect 15 0 2 1;
#X connect 16 0 2 0;
#X coords 0 0 1 1 85 60 0;
