#N canvas 0 22 450 300 12;
#X obj 220 154 snapshot~;
#X obj 187 97 env~;
#X obj 188 123 -~ 100;
#X obj 109 156 snapshot~;
#X obj 120 96 env~;
#X obj 121 122 -~ 100;
#X obj 120 67 inlet~;
#X obj 187 69 inlet~;
#X obj 300 100 r globalMetro;
#X obj 102 182 send \$1L;
#X obj 219 181 s \$1R;
#X connect 0 0 10 0;
#X connect 1 0 2 0;
#X connect 2 0 0 0;
#X connect 3 0 9 0;
#X connect 4 0 5 0;
#X connect 5 0 3 0;
#X connect 6 0 4 0;
#X connect 7 0 1 0;
#X connect 8 0 0 0;
#X connect 8 0 3 0;
