#N canvas 120 174 444 315 10;
#X obj 164 81 savestate;
#X obj 164 221 list;
#X obj 164 181 list split 1;
#X obj 77 199 loadbang;
#X obj 164 201 sel \$2;
#X obj 143 241 list;
#X obj 164 141 list trim;
#X obj 215 101 text tolist \$1-\$2;
#X obj 215 121 list prepend @text \$2;
#X obj 164 161 route @text;
#X obj 143 261 text fromlist \$1-\$2;
#X text 77 18 sos for text;
#X connect 0 0 6 0;
#X connect 0 1 7 0;
#X connect 1 0 5 1;
#X connect 2 0 4 0;
#X connect 2 1 1 1;
#X connect 3 0 5 0;
#X connect 4 0 1 0;
#X connect 5 0 10 0;
#X connect 6 0 9 0;
#X connect 7 0 8 0;
#X connect 8 0 0 0;
#X connect 9 0 2 0;
