#N canvas 120 174 448 353 10;
#X obj 164 81 savestate;
#X obj 290 81 inlet;
#X obj 215 121 list append 0;
#X obj 215 101 symbol \$1;
#X obj 164 171 sel \$1;
#X obj 164 191 list;
#X obj 164 151 list split 1;
#X obj 143 231 outlet;
#X obj 143 211 list;
#X obj 77 169 loadbang;
#X connect 0 0 6 0;
#X connect 0 1 3 0;
#X connect 1 0 2 1;
#X connect 2 0 0 0;
#X connect 3 0 2 0;
#X connect 4 0 5 0;
#X connect 5 0 8 1;
#X connect 6 0 4 0;
#X connect 6 1 5 1;
#X connect 8 0 7 0;
#X connect 9 0 8 0;
