#N canvas 680 236 403 233 10;
#X obj 206 66 array get \$1-\$2;
#X obj 46 166 array set \$1-\$2;
#X obj 206 86 list prepend @array \$2;
#X obj 206 106 s \$1-to.savestate;
#X obj 46 86 route @array;
#X obj 46 106 list split 1;
#X obj 46 126 sel \$2;
#X obj 46 146 list;
#X obj 46 46 r \$1-savestate.left;
#X obj 206 46 r \$1-savestate.right;
#X obj 46 66 list trim;
#X connect 0 0 2 0;
#X connect 2 0 3 0;
#X connect 4 0 5 0;
#X connect 5 0 6 0;
#X connect 5 1 7 1;
#X connect 6 0 7 0;
#X connect 7 0 1 0;
#X connect 8 0 10 0;
#X connect 9 0 0 0;
#X connect 10 0 4 0;
