#N canvas 631 378 393 202 10;
#X obj 281 66 r \$1-\$2.s;
#X obj 46 126 s \$1-\$2.r;
#X obj 46 46 r \$1-savestate.left;
#X obj 206 46 r \$1-savestate.right;
#X obj 206 106 s \$1-to.savestate;
#X obj 206 86 list append 0;
#X obj 206 66 symbol \$2;
#X obj 46 66 list split 1;
#X obj 46 86 sel \$2;
#X obj 46 106 list;
#X connect 0 0 5 1;
#X connect 2 0 7 0;
#X connect 3 0 6 0;
#X connect 5 0 4 0;
#X connect 6 0 5 0;
#X connect 7 0 8 0;
#X connect 7 1 9 1;
#X connect 8 0 9 0;
#X connect 9 0 1 0;
