#N canvas 120 174 444 315 10;
#X obj 164 81 savestate;
#X obj 215 121 list append 0;
#X obj 164 191 list;
#X obj 164 151 list split 1;
#X obj 77 169 loadbang;
#X text 77 18 wireless version of sos;
#X obj 290 81 r \$1-\$2.s;
#X obj 215 101 symbol \$2;
#X obj 164 171 sel \$2;
#X obj 143 231 s \$1-\$2.r;
#X obj 143 211 list;
#X connect 0 0 3 0;
#X connect 0 1 7 0;
#X connect 1 0 0 0;
#X connect 2 0 10 1;
#X connect 3 0 8 0;
#X connect 3 1 2 1;
#X connect 4 0 10 0;
#X connect 6 0 1 1;
#X connect 7 0 1 0;
#X connect 8 0 2 0;
#X connect 10 0 9 0;
